<?xml version="1.0" encoding="utf-8"?>
<!-- Generator: Adobe Illustrator 19.0.0, SVG Export Plug-In . SVG Version: 6.00 Build 0)  -->
<svg version="1.1" id="Layer_2" xmlns="http://www.w3.org/2000/svg" xmlns:xlink="http://www.w3.org/1999/xlink" x="0px" y="0px"
	 viewBox="-4432 2982 134 38" style="enable-background:new -4432 2982 134 38;" xml:space="preserve">
<style type="text/css">
	.st0{fill:#EE3424;}
	.st1{fill:#14BF98;}
	.st2{fill:#F47721;}
	.st3{fill:#7E439A;}
	.st4{fill:#898F37;}
	.st5{fill:#293078;}
	.st6{fill:#EB1D2B;}
	.st7{fill:#F6A9CA;}
	.st8{fill:#A5A737;}
	.st9{fill:#FFFFFF;}
</style>
<title>logo</title>
<polygon class="st0" points="-4426.3,2997.7 -4430.1,2997.7 -4432,3001 -4430.1,3004.3 -4426.3,3004.3 -4424.3,3001 "/>
<polygon class="st1" points="-4421.7,2989.8 -4425.5,2989.8 -4427.4,2993.1 -4425.5,2996.4 -4421.7,2996.4 -4419.8,2993.1 "/>
<polygon class="st2" points="-4417.2,2982 -4421,2982 -4422.9,2985.3 -4421,2988.6 -4417.2,2988.6 -4415.3,2985.3 "/>
<polygon class="st1" points="-4408.1,2982 -4412,2982 -4413.9,2985.3 -4412,2988.6 -4408.1,2988.6 -4406.2,2985.3 "/>
<polygon class="st3" points="-4412.9,2990.6 -4415.8,2990.6 -4417.3,2993.1 -4415.8,2995.6 -4412.9,2995.6 -4411.4,2993.1 "/>
<polygon class="st1" points="-4403.8,2990.6 -4406.8,2990.6 -4408.2,2993.1 -4406.8,2995.6 -4403.8,2995.6 -4402.4,2993.1 "/>
<polygon class="st1" points="-4413.2,3007.7 -4415.5,3007.7 -4416.6,3009.7 -4415.5,3011.7 -4413.2,3011.7 -4412.1,3009.7 "/>
<polygon class="st1" points="-4404.1,3007.7 -4406.4,3007.7 -4407.6,3009.7 -4406.4,3011.7 -4404.1,3011.7 -4403,3009.7 "/>
<polygon class="st1" points="-4409.1,3016.7 -4411,3016.7 -4412,3018.3 -4411,3020 -4409.1,3020 -4408.1,3018.3 "/>
<polygon class="st4" points="-4399.1,2982 -4402.9,2982 -4404.8,2985.3 -4402.9,2988.6 -4399.1,2988.6 -4397.1,2985.3 "/>
<polygon class="st5" points="-4417.5,2998.2 -4420.7,2998.2 -4422.2,3000.9 -4420.7,3003.6 -4417.5,3003.6 -4416,3000.9 "/>
<polygon class="st1" points="-4399.4,2998.2 -4402.5,2998.2 -4404.1,3000.9 -4402.5,3003.6 -4399.4,3003.6 -4397.8,3000.9 "/>
<polygon class="st1" points="-4408.7,2998.6 -4411.4,2998.6 -4412.7,3000.9 -4411.4,3003.2 -4408.7,3003.2 -4407.4,3000.9 "/>
<polygon class="st6" points="-4394.6,2989.8 -4398.4,2989.8 -4400.3,2993.1 -4398.4,2996.4 -4394.6,2996.4 -4392.7,2993.1 "/>
<polygon class="st7" points="-4422.3,3007 -4425.4,3007 -4427,3009.7 -4425.4,3012.4 -4422.3,3012.4 -4420.7,3009.7 "/>
<polygon class="st1" points="-4419.6,3016.9 -4421.4,3016.9 -4422.3,3018.5 -4421.4,3020 -4419.6,3020 -4418.7,3018.5 "/>
<polygon class="st1" points="-4390,2997.7 -4393.8,2997.7 -4395.7,3001 -4393.8,3004.3 -4390,3004.3 -4388.1,3001 "/>
<polygon class="st1" points="-4394.7,3007 -4397.8,3007 -4399.4,3009.7 -4397.8,3012.4 -4394.7,3012.4 -4393.1,3009.7 "/>
<polygon class="st8" points="-4398.7,3015.7 -4401.2,3015.7 -4402.5,3017.8 -4401.2,3020 -4398.7,3020 -4397.5,3017.8 "/>
<path class="st9" d="M-4353,3016.5h-6.1v-6.1h-12.2v6.1h-6.1v-18.2c0-1.6,0.3-3.2,1-4.7c0.6-1.4,1.5-2.8,2.6-3.9
	c1.1-1.1,2.4-2,3.9-2.6c3-1.3,6.5-1.3,9.5,0c2.9,1.2,5.3,3.6,6.5,6.5c0.6,1.5,1,3.1,1,4.7L-4353,3016.5L-4353,3016.5z
	 M-4359.1,3004.4v-6.1c0-0.8-0.2-1.6-0.5-2.4c-0.6-1.5-1.8-2.6-3.3-3.2c-1.5-0.6-3.2-0.6-4.7,0c-1.5,0.6-2.6,1.8-3.3,3.2
	c-0.3,0.7-0.5,1.6-0.5,2.4v6.1H-4359.1z"/>
<path class="st9" d="M-4342.5,3016.5h-5.8v-22.7h1.4l1.9,2.7c1.9-1.7,4.3-2.7,6.9-2.7h5.1v5.8h-5.1c-0.6,0-1.2,0.1-1.7,0.3
	c-1.6,0.7-2.7,2.3-2.7,4.1V3016.5L-4342.5,3016.5z"/>
<path class="st9" d="M-4323.4,2987.6c0,0.5-0.1,1-0.3,1.5c-0.2,0.5-0.5,0.9-0.8,1.2c-0.4,0.4-0.8,0.6-1.2,0.8c-1,0.4-2.1,0.4-3,0
	c-0.9-0.4-1.7-1.1-2.1-2c-0.4-1-0.4-2,0-3c0.4-0.9,1.1-1.7,2.1-2.1s2.1-0.4,3,0c0.5,0.2,0.9,0.5,1.2,0.8c0.4,0.4,0.6,0.8,0.8,1.2
	C-4323.6,2986.6-4323.4,2987.1-4323.4,2987.6z M-4324.4,3016.5h-5.8v-22.7h5.8V3016.5z"/>
<path class="st9" d="M-4298,3016.5h-1.4l-2.3-3.1c-0.6,0.5-1.1,1-1.8,1.4c-0.6,0.4-1.3,0.8-1.9,1.1c-0.7,0.3-1.4,0.6-2.1,0.8
	s-1.4,0.3-2.2,0.3c-1.5,0-3.1-0.3-4.5-0.8c-1.4-0.5-2.6-1.3-3.7-2.3c-1.1-1.1-1.9-2.4-2.5-3.8c-0.6-1.6-0.9-3.3-0.9-5.1
	c0-1.7,0.3-3.3,0.9-4.9c0.6-1.4,1.4-2.7,2.5-3.8c1.1-1.1,2.3-1.9,3.7-2.5c1.4-0.6,3-0.9,4.5-0.9c0.7,0,1.5,0.1,2.2,0.3
	s1.4,0.4,2.1,0.8c0.7,0.3,1.3,0.7,1.9,1.1c0.6,0.4,1.2,0.9,1.7,1.4l2.3-2.7h1.4v22.7H-4298z M-4303.8,3005c0-0.8-0.2-1.6-0.5-2.3
	c-0.3-0.7-0.7-1.4-1.2-2c-0.5-0.6-1.1-1-1.8-1.4c-0.7-0.3-1.5-0.5-2.2-0.5c-0.8,0-1.5,0.1-2.2,0.4c-0.7,0.3-1.3,0.7-1.8,1.2
	c-0.5,0.6-1,1.2-1.2,1.9c-0.3,0.8-0.5,1.7-0.4,2.6c0,0.9,0.1,1.8,0.4,2.6c0.3,0.7,0.7,1.4,1.2,1.9s1.1,0.9,1.8,1.2
	c0.7,0.3,1.5,0.4,2.2,0.4c0.8,0,1.5-0.2,2.2-0.5c0.7-0.3,1.3-0.8,1.8-1.4c0.5-0.6,0.9-1.2,1.2-2
	C-4304,3006.5-4303.8,3005.8-4303.8,3005z"/>
</svg>
