<?xml version="1.0" encoding="utf-8"?>
<!-- Generator: Adobe Illustrator 19.0.0, SVG Export Plug-In . SVG Version: 6.00 Build 0)  -->
<svg version="1.1" id="Layer_2" xmlns="http://www.w3.org/2000/svg" xmlns:xlink="http://www.w3.org/1999/xlink" x="0px" y="0px"
	 viewBox="-4432 2982 134 38" style="enable-background:new -4432 2982 134 38;" xml:space="preserve">
<style type="text/css">
	.st0{fill:#A8504B;}
	.st1{fill:none;}
	.st2{fill:#F1CA0B;}
	.st3{fill:#F89B00;}
	.st4{fill:#FD5601;}
	.st5{fill:#FD3100;}
	.st6{fill:#BE7C78;}
	.st7{fill:#FFFFFF;}
	.st8{fill:#200C0E;}
	.st9{fill-rule:evenodd;clip-rule:evenodd;fill:#200C0E;}
	.st10{fill:#0F0D1D;}
	.st11{font-family:'SUperHERO';}
	.st12{font-size:12px;}
</style>
<title>logo</title>
<g>
	<g>
		<path class="st0" d="M-4377.9,2985.2c-0.3,0.1-1.1,0.5-2.2,1.2l-2.1-0.4c0.3-0.6-0.3-0.7-0.5-0.7c-0.1,0-0.2,0-0.2,0.1l-0.6,0.4
			l-2.8-0.6l-0.8,0.4l2.1,1c-0.2,0.2-0.2,0.5,0,0.7c0,0,0,0,0,0c0.1,0.1,0.3,0.1,0.4,0l0.4-0.2l1.6,0.8c-1.1,0.7-2.3,1.5-3.1,2
			l-1.3-0.4l-0.2,0.3c0,0.1,0,0.1,0.1,0.2l-1.5-0.1l-0.5,0.3l2.4,0.8c0.1,0.1,0.2,0.2,0.3,0.2l0.3,0.7l0.3-0.2l0.3-0.8
			c0.9-0.4,2.6-1.1,4.3-1.9l0.1,0.6l-0.2,0.1c-0.2,0.1-0.2,0.4,0,0.5c0,0,0,0,0,0c0.1,0.1,0.2,0.1,0.3,0l0.1-0.1l0.1,0.6l0.6-0.3
			l0.3-0.8l0.3-0.2c0,0,0.1-0.1,0.1-0.1c0.2-0.4,0-0.5-0.2-0.5l0.2-0.7c2-0.9,3.6-1.8,3.7-2.1
			C-4375.3,2985.3-4376.6,2985-4377.9,2985.2z"/>
	</g>
</g>
<g>
	<g>
		<rect x="-4403.1" y="2987.2" class="st1" width="0" height="0"/>
		<circle class="st1" cx="-4383.2" cy="3005.7" r="0"/>
		<rect x="-4386.4" y="2998.4" class="st1" width="0" height="0"/>
		<circle class="st1" cx="-4403.7" cy="2987.2" r="0"/>
		<rect x="-4396.3" y="2989" class="st1" width="0" height="0"/>
		<rect x="-4395.9" y="2989.2" class="st1" width="0" height="0"/>
		<circle class="st1" cx="-4391.5" cy="2992.1" r="0"/>
		<rect x="-4393.7" y="2990.5" class="st1" width="0" height="0"/>
		<path class="st1" d="M-4382.8,3007.4c0,0.1,0,0.2,0.1,0.3C-4382.7,3007.6-4382.8,3007.5-4382.8,3007.4z"/>
		<rect x="-4394.1" y="2990.2" class="st1" width="0" height="0"/>
		<path class="st1" d="M-4382.9,3006.8c0,0.1,0,0.2,0.1,0.3C-4382.9,3007-4382.9,3006.9-4382.9,3006.8z"/>
		<rect x="-4391.9" y="2991.8" class="st1" width="0" height="0"/>
		<rect x="-4384.5" y="3002.1" class="st1" width="0" height="0"/>
		<rect x="-4392.7" y="2991.2" class="st1" width="0" height="0"/>
		<path class="st1" d="M-4403.3,2987.2C-4403.3,2987.2-4403.3,2987.2-4403.3,2987.2C-4403.3,2987.2-4403.3,2987.2-4403.3,2987.2
			C-4403.3,2987.2-4403.3,2987.2-4403.3,2987.2C-4403.3,2987.2-4403.3,2987.2-4403.3,2987.2z"/>
		<rect x="-4397.5" y="2988.5" class="st1" width="0" height="0"/>
		<path class="st1" d="M-4396.9,2988.7L-4396.9,2988.7C-4397,2988.7-4397,2988.7-4396.9,2988.7
			C-4397,2988.7-4397,2988.7-4396.9,2988.7L-4396.9,2988.7z"/>
		<rect x="-4384.6" y="3001.9" class="st1" width="0" height="0"/>
		<rect x="-4397.6" y="2988.4" class="st1" width="0" height="0"/>
		<path class="st1" d="M-4392.5,2991.3C-4392.5,2991.3-4392.5,2991.3-4392.5,2991.3C-4392.5,2991.3-4392.5,2991.3-4392.5,2991.3
			C-4392.5,2991.3-4392.6,2991.3-4392.5,2991.3C-4392.6,2991.3-4392.6,2991.3-4392.5,2991.3
			C-4392.6,2991.3-4392.6,2991.3-4392.5,2991.3C-4392.6,2991.3-4392.5,2991.3-4392.5,2991.3z"/>
		<path class="st1" d="M-4397.8,2988.4L-4397.8,2988.4L-4397.8,2988.4C-4397.8,2988.4-4397.8,2988.3-4397.8,2988.4
			C-4397.8,2988.3-4397.8,2988.3-4397.8,2988.4L-4397.8,2988.4C-4397.8,2988.3-4397.8,2988.4-4397.8,2988.4z"/>
		<rect x="-4396.9" y="2988.7" class="st1" width="0" height="0"/>
		<rect x="-4384.7" y="3001.6" class="st1" width="0" height="0"/>
		<rect x="-4396.5" y="2988.9" class="st1" width="0" height="0"/>
		<rect x="-4383.5" y="3004.9" class="st1" width="0" height="0"/>
		<rect x="-4403.7" y="2987.2" class="st1" width="0" height="0"/>
		<path class="st1" d="M-4382.5,3008.8c0,0.1,0,0.2,0.1,0.3C-4382.5,3009-4382.5,3008.9-4382.5,3008.8z"/>
		<circle class="st1" cx="-4383.6" cy="3004.6" r="0"/>
		<rect x="-4403.6" y="2987.2" class="st1" width="0" height="0"/>
		<circle class="st1" cx="-4392.1" cy="2991.6" r="0"/>
		<rect x="-4395.7" y="2989.3" class="st1" width="0" height="0"/>
		<path class="st1" d="M-4382,3012.8c0,0.2,0,0.4,0,0.5C-4382,3013.2-4382,3013-4382,3012.8z"/>
		<circle class="st1" cx="-4390.7" cy="2992.9" r="0"/>
		<path class="st1" d="M-4382.4,3009.4c0,0.1,0,0.2,0.1,0.3C-4382.4,3009.6-4382.4,3009.5-4382.4,3009.4z"/>
		<path class="st1" d="M-4383,3006.5C-4383,3006.5-4383,3006.5-4383,3006.5C-4383,3006.5-4383,3006.5-4383,3006.5
			C-4383,3006.5-4383,3006.5-4383,3006.5C-4383,3006.5-4383,3006.5-4383,3006.5z"/>
		<path class="st1" d="M-4395,2989.7C-4395,2989.7-4395,2989.7-4395,2989.7C-4395,2989.7-4395,2989.7-4395,2989.7
			C-4395,2989.7-4395,2989.7-4395,2989.7C-4395,2989.7-4395,2989.7-4395,2989.7z"/>
		<path class="st1" d="M-4382,3013.5c0,0.2,0,0.3,0,0.5C-4382,3013.8-4382,3013.7-4382,3013.5z"/>
		<path class="st1" d="M-4390.8,2992.8C-4390.8,2992.8-4390.8,2992.8-4390.8,2992.8C-4390.8,2992.8-4390.8,2992.8-4390.8,2992.8
			C-4390.8,2992.8-4390.8,2992.8-4390.8,2992.8C-4390.8,2992.8-4390.8,2992.8-4390.8,2992.8z"/>
		<polygon class="st1" points="-4383.8,3003.8 -4383.8,3003.8 -4383.8,3003.8 -4383.8,3003.8 		"/>
		<polygon class="st1" points="-4394.4,2990 -4394.4,2990 -4394.4,2990 -4394.4,2990 		"/>
		<circle class="st1" cx="-4389.8" cy="2993.8" r="0"/>
		<rect x="-4394.3" y="2990.1" class="st1" width="0" height="0"/>
		<rect x="-4390.5" y="2993" class="st1" width="0" height="0"/>
		<rect x="-4389.6" y="2994" class="st1" width="0" height="0"/>
		<rect x="-4394.6" y="2989.9" class="st1" width="0" height="0"/>
		<rect x="-4394.8" y="2989.8" class="st1" width="0" height="0"/>
		<polygon class="st1" points="-4383,3006.5 -4383,3006.5 -4383,3006.5 		"/>
		<path class="st1" d="M-4382.1,3011.5c0,0.1,0,0.3,0,0.4C-4382.1,3011.7-4382.1,3011.6-4382.1,3011.5z"/>
		<polygon class="st1" points="-4387.6,2996.5 -4387.6,2996.5 -4387.6,2996.5 -4387.6,2996.5 		"/>
		<rect x="-4390.9" y="2992.7" class="st1" width="0" height="0"/>
		<path class="st1" d="M-4382.3,3010c0,0.2,0.1,0.4,0.1,0.6C-4382.2,3010.4-4382.3,3010.2-4382.3,3010z"/>
		<circle class="st1" cx="-4388.7" cy="2995" r="0"/>
		<path class="st1" d="M-4382.2,3010.8c0,0.1,0,0.3,0,0.4C-4382.2,3011.1-4382.2,3010.9-4382.2,3010.8z"/>
		<path class="st1" d="M-4387.6,2996.5C-4387.6,2996.5-4387.6,2996.5-4387.6,2996.5C-4387.6,2996.5-4387.6,2996.5-4387.6,2996.5
			C-4387.6,2996.5-4387.6,2996.5-4387.6,2996.5C-4387.6,2996.5-4387.6,2996.5-4387.6,2996.5z"/>
		<rect x="-4395" y="2989.6" class="st1" width="0" height="0"/>
		<path class="st1" d="M-4395.1,2989.6C-4395.1,2989.6-4395.1,2989.6-4395.1,2989.6C-4395.1,2989.6-4395.1,2989.6-4395.1,2989.6
			C-4395.1,2989.6-4395.1,2989.6-4395.1,2989.6C-4395.1,2989.6-4395.1,2989.6-4395.1,2989.6
			C-4395.1,2989.6-4395.1,2989.6-4395.1,2989.6C-4395.1,2989.6-4395.1,2989.6-4395.1,2989.6z"/>
		<circle class="st1" cx="-4393.8" cy="2990.4" r="0"/>
		<rect x="-4384.1" y="3002.9" class="st1" width="0" height="0"/>
		<rect x="-4394" y="2990.3" class="st1" width="0" height="0"/>
		<polygon class="st1" points="-4389.1,2994.5 -4389.1,2994.5 -4389.1,2994.5 -4389.1,2994.5 		"/>
		<path class="st1" d="M-4382.1,3012.1c0,0.2,0,0.4,0,0.6C-4382,3012.5-4382.1,3012.3-4382.1,3012.1z"/>
		<rect x="-4388.9" y="2994.8" class="st1" width="0" height="0"/>
		<path class="st1" d="M-4382.6,3008.4c0-0.1,0-0.2-0.1-0.4C-4382.6,3008.1-4382.6,3008.3-4382.6,3008.4L-4382.6,3008.4z"/>
		<rect x="-4402.7" y="2987.3" class="st1" width="0" height="0"/>
		<path class="st1" d="M-4399.9,2987.7C-4399.9,2987.7-4399.9,2987.7-4399.9,2987.7c0,0,0.1,0,0.1,0
			C-4399.8,2987.7-4399.9,2987.7-4399.9,2987.7C-4399.9,2987.7-4399.9,2987.7-4399.9,2987.7
			C-4399.9,2987.7-4399.9,2987.7-4399.9,2987.7C-4400,2987.7-4400,2987.7-4399.9,2987.7C-4400,2987.7-4400,2987.7-4399.9,2987.7
			C-4399.9,2987.7-4399.9,2987.7-4399.9,2987.7z"/>
		<rect x="-4400.8" y="2987.5" class="st1" width="0" height="0"/>
		<rect x="-4400.6" y="2987.6" class="st1" width="0" height="0"/>
		<rect x="-4398.2" y="2988.2" class="st1" width="0" height="0"/>
		<rect x="-4399.7" y="2987.8" class="st1" width="0" height="0"/>
		<circle class="st1" cx="-4401.3" cy="2987.4" r="0"/>
		<rect x="-4385.8" y="2999.3" class="st1" width="0" height="0"/>
		<rect x="-4401.9" y="2987.3" class="st1" width="0" height="0"/>
		<rect x="-4401.3" y="2987.4" class="st1" width="0" height="0"/>
		<rect x="-4398.7" y="2988.1" class="st1" width="0" height="0"/>
		<rect x="-4401.9" y="2987.3" class="st1" width="0" height="0"/>
		<rect x="-4401.8" y="2987.3" class="st1" width="0" height="0"/>
		<rect x="-4398.7" y="2988" class="st1" width="0" height="0"/>
		<rect x="-4400.9" y="2987.5" class="st1" width="0" height="0"/>
		<rect x="-4400.5" y="2987.6" class="st1" width="0" height="0"/>
		<rect x="-4400" y="2987.7" class="st1" width="0" height="0"/>
		<polygon class="st1" points="-4385.1,3000.8 -4385.1,3000.8 -4385.1,3000.8 -4385.1,3000.8 		"/>
		<rect x="-4398.1" y="2988.3" class="st1" width="0" height="0"/>
		<rect x="-4400" y="2987.7" class="st1" width="0" height="0"/>
		<path class="st1" d="M-4381.9,3014.8c0-0.2,0-0.4,0-0.6C-4382,3014.4-4382,3014.6-4381.9,3014.8z"/>
		<circle class="st1" cx="-4400.2" cy="2987.6" r="0"/>
		<rect x="-4385.6" y="2999.8" class="st1" width="0" height="0"/>
		<rect x="-4399.6" y="2987.8" class="st1" width="0" height="0"/>
		<rect x="-4399.3" y="2987.9" class="st1" width="0" height="0"/>
		<path class="st1" d="M-4402.8,2987.3C-4402.8,2987.3-4402.8,2987.3-4402.8,2987.3c0,0-0.1,0-0.1,0
			C-4402.9,2987.2-4402.8,2987.2-4402.8,2987.3C-4402.8,2987.3-4402.8,2987.3-4402.8,2987.3z"/>
		<rect x="-4401.4" y="2987.4" class="st1" width="0" height="0"/>
		<path class="st2" d="M-4392.1,2991.6c-0.1,0-0.1-0.1-0.2-0.1C-4392.2,2991.5-4392.2,2991.6-4392.1,2991.6
			C-4392.1,2991.6-4392.1,2991.6-4392.1,2991.6z"/>
		<path class="st2" d="M-4397.6,2988.4C-4397.6,2988.4-4397.5,2988.4-4397.6,2988.4C-4397.5,2988.5-4397.5,2988.5-4397.6,2988.4
			C-4397.6,2988.4-4397.6,2988.4-4397.6,2988.4L-4397.6,2988.4C-4397.6,2988.4-4397.6,2988.4-4397.6,2988.4z"/>
		<path class="st2" d="M-4392.6,2991.2C-4392.6,2991.2-4392.6,2991.2-4392.6,2991.2C-4392.6,2991.2-4392.7,2991.2-4392.6,2991.2
			C-4392.7,2991.2-4392.7,2991.2-4392.6,2991.2C-4392.7,2991.2-4392.6,2991.2-4392.6,2991.2z"/>
		<polygon class="st2" points="-4383.2,3005.7 -4383.2,3005.7 -4383.2,3005.7 		"/>
		<path class="st2" d="M-4383,3006.5c0,0,0-0.1,0-0.1C-4383,3006.4-4383,3006.5-4383,3006.5C-4383,3006.5-4383,3006.5-4383,3006.5z"
			/>
		<path class="st2" d="M-4403,2987.2C-4403,2987.2-4403,2987.2-4403,2987.2C-4403,2987.2-4403,2987.2-4403,2987.2
			C-4403,2987.2-4403,2987.2-4403,2987.2z"/>
		<polygon class="st2" points="-4392.6,2991.3 -4392.6,2991.3 -4392.6,2991.3 		"/>
		<path class="st2" d="M-4399.1,2987.9C-4399.1,2987.9-4399.1,2987.9-4399.1,2987.9C-4399.2,2987.9-4399.1,2987.9-4399.1,2987.9
			C-4399.1,2987.9-4399.1,2987.9-4399.1,2987.9z"/>
		<path class="st2" d="M-4383.5,3004.9C-4383.5,3004.9-4383.5,3004.9-4383.5,3004.9c0-0.1-0.1-0.2-0.1-0.3c0,0,0,0,0,0
			C-4383.5,3004.7-4383.5,3004.8-4383.5,3004.9z"/>
		<rect x="-4399.7" y="2987.8" class="st2" width="0" height="0"/>
		<path class="st2" d="M-4401.9,2987.3C-4401.9,2987.3-4401.9,2987.3-4401.9,2987.3L-4401.9,2987.3
			C-4401.9,2987.3-4401.9,2987.3-4401.9,2987.3C-4401.9,2987.3-4401.9,2987.3-4401.9,2987.3
			C-4401.9,2987.3-4401.9,2987.3-4401.9,2987.3z"/>
		<path class="st2" d="M-4394.5,2990C-4394.5,2990-4394.5,2990-4394.5,2990C-4394.5,2990-4394.5,2990-4394.5,2990
			C-4394.4,2990-4394.4,2990-4394.5,2990C-4394.4,2990-4394.4,2990-4394.5,2990c0,0-0.1,0-0.1-0.1l0,0
			C-4394.5,2989.9-4394.5,2990-4394.5,2990z"/>
		<path class="st2" d="M-4401.3,2987.4C-4401.3,2987.4-4401.3,2987.4-4401.3,2987.4C-4401.3,2987.4-4401.3,2987.4-4401.3,2987.4
			C-4401.3,2987.4-4401.3,2987.4-4401.3,2987.4L-4401.3,2987.4C-4401.3,2987.4-4401.3,2987.4-4401.3,2987.4z"/>
		<path class="st2" d="M-4395,2989.6L-4395,2989.6C-4395.1,2989.6-4395.1,2989.6-4395,2989.6
			C-4395.1,2989.6-4395.1,2989.6-4395,2989.6C-4395.1,2989.6-4395.1,2989.6-4395,2989.6z"/>
		<polygon class="st2" points="-4395.5,2989.4 -4395.5,2989.4 -4395.5,2989.4 		"/>
		<path class="st2" d="M-4398.1,2988.3C-4398.1,2988.3-4398.1,2988.3-4398.1,2988.3C-4398.1,2988.2-4398.1,2988.2-4398.1,2988.3
			L-4398.1,2988.3C-4398.1,2988.2-4398.1,2988.2-4398.1,2988.3z"/>
		<path class="st2" d="M-4403.6,2987.2C-4403.6,2987.2-4403.6,2987.2-4403.6,2987.2C-4403.6,2987.2-4403.6,2987.2-4403.6,2987.2
			L-4403.6,2987.2C-4403.6,2987.2-4403.6,2987.2-4403.6,2987.2z"/>
		<path class="st2" d="M-4394.1,2990.2C-4394.1,2990.2-4394.1,2990.2-4394.1,2990.2C-4394.1,2990.2-4394.1,2990.2-4394.1,2990.2
			C-4394.1,2990.2-4394.1,2990.2-4394.1,2990.2C-4394.1,2990.2-4394.1,2990.2-4394.1,2990.2z"/>
		<path class="st2" d="M-4396.5,2988.9C-4396.5,2988.9-4396.5,2988.9-4396.5,2988.9c0,0-0.1,0-0.1,0
			C-4396.6,2988.9-4396.6,2988.9-4396.5,2988.9C-4396.5,2988.9-4396.5,2988.9-4396.5,2988.9z"/>
		<path class="st2" d="M-4393.6,2990.5c0,0,0.1,0,0.1,0.1C-4393.6,2990.5-4393.6,2990.5-4393.6,2990.5
			C-4393.7,2990.5-4393.7,2990.5-4393.6,2990.5C-4393.7,2990.5-4393.7,2990.5-4393.6,2990.5z"/>
		<path class="st2" d="M-4395.9,2989.2L-4395.9,2989.2C-4396,2989.2-4396,2989.1-4395.9,2989.2
			C-4396,2989.1-4396,2989.2-4395.9,2989.2L-4395.9,2989.2z"/>
		<rect x="-4394" y="2990.3" class="st2" width="0" height="0"/>
		<path class="st2" d="M-4400.8,2987.5C-4400.8,2987.5-4400.8,2987.5-4400.8,2987.5C-4400.8,2987.5-4400.8,2987.5-4400.8,2987.5
			C-4400.8,2987.5-4400.8,2987.5-4400.8,2987.5C-4400.8,2987.5-4400.8,2987.5-4400.8,2987.5z"/>
		<path class="st2" d="M-4391.7,2992C-4391.7,2992-4391.7,2991.9-4391.7,2992C-4391.7,2991.9-4391.7,2991.9-4391.7,2992
			C-4391.7,2991.9-4391.7,2992-4391.7,2992z"/>
		<path class="st2" d="M-4385.5,3000c0-0.1-0.1-0.1-0.1-0.2c0,0,0,0,0,0C-4385.5,2999.8-4385.5,2999.9-4385.5,3000z"/>
		<path class="st2" d="M-4390.8,2992.8C-4390.8,2992.8-4390.8,2992.8-4390.8,2992.8c-0.1,0-0.1-0.1-0.1-0.1v0
			C-4390.9,2992.7-4390.8,2992.8-4390.8,2992.8z"/>
		<polygon class="st2" points="-4385.8,2999.3 -4385.8,2999.3 -4385.8,2999.3 		"/>
		<path class="st2" d="M-4382,3014c0-0.2,0-0.3,0-0.5c0-0.1,0-0.1,0-0.2c0-0.2,0-0.4,0-0.5c0,0,0-0.1,0-0.1c0-0.2,0-0.4,0-0.6
			c0-0.1,0-0.1,0-0.2c0-0.1,0-0.3,0-0.4c0-0.1,0-0.2,0-0.2c0-0.1,0-0.3,0-0.4c0-0.1,0-0.1,0-0.2c0-0.2,0-0.4-0.1-0.6
			c0-0.1,0-0.2,0-0.3c0-0.1,0-0.2-0.1-0.3c0-0.1,0-0.2,0-0.3c0-0.1,0-0.2-0.1-0.3c0,0,0-0.1,0-0.1c-0.3,0-0.6,0-0.9,0
			c-0.7,0-1.2-0.1-1.6-0.1c-0.2,0-0.3,0-0.4,0c-0.1,0-0.2,0-0.2,0s0.1,0,0.2,0c0.1,0,0.3,0,0.4,0c0.4,0,0.9-0.1,1.6-0.1
			c0.3,0,0.5,0,0.8,0c0-0.1,0-0.2-0.1-0.4c0-0.1,0-0.2-0.1-0.3c0-0.1,0-0.2-0.1-0.3c0-0.1,0-0.2-0.1-0.3c0-0.1,0-0.2-0.1-0.3
			c0-0.1,0-0.2-0.1-0.3c0,0,0,0,0,0l-43.4,8.3h44.4c0-0.2,0-0.4,0-0.6C-4382,3014.1-4382,3014.1-4382,3014z"/>
		<path class="st2" d="M-4388.7,2995C-4388.7,2995-4388.7,2995-4388.7,2995c-0.1-0.1-0.1-0.1-0.2-0.2c0,0,0,0,0,0
			C-4388.9,2994.8-4388.8,2994.9-4388.7,2995z"/>
		<path class="st2" d="M-4384.6,3001.9C-4384.6,3001.9-4384.6,3001.9-4384.6,3001.9c0-0.1-0.1-0.2-0.1-0.3l0,0
			C-4384.7,3001.7-4384.6,3001.8-4384.6,3001.9z"/>
		<path class="st2" d="M-4389.7,2993.9C-4389.7,2993.9-4389.7,2993.9-4389.7,2993.9C-4389.7,2993.9-4389.7,2993.8-4389.7,2993.9
			C-4389.8,2993.8-4389.8,2993.8-4389.7,2993.9C-4389.8,2993.8-4389.7,2993.9-4389.7,2993.9z"/>
		<polygon class="st2" points="-4385.1,3000.8 -4385.1,3000.8 -4385.1,3000.8 		"/>
		<path class="st2" d="M-4389.6,2994C-4389.6,2994-4389.6,2994-4389.6,2994C-4389.6,2994-4389.7,2993.9-4389.6,2994
			C-4389.7,2993.9-4389.7,2993.9-4389.6,2994C-4389.7,2993.9-4389.6,2994-4389.6,2994z"/>
		<path class="st2" d="M-4390.5,2993.1L-4390.5,2993.1C-4390.5,2993.1-4390.5,2993.1-4390.5,2993.1L-4390.5,2993.1
			C-4390.5,2993.1-4390.5,2993.1-4390.5,2993.1z"/>
		<polygon class="st2" points="-4383.8,3003.8 -4383.8,3003.8 -4383.8,3003.8 		"/>
		<path class="st2" d="M-4386.4,2998.3c0,0-0.1-0.1-0.1-0.1C-4386.4,2998.3-4386.4,2998.3-4386.4,2998.3
			C-4386.4,2998.4-4386.4,2998.3-4386.4,2998.3z"/>
		<path class="st2" d="M-4384.4,3002.2C-4384.5,3002.1-4384.5,3002.1-4384.4,3002.2C-4384.5,3002.1-4384.5,3002.1-4384.4,3002.2
			C-4384.5,3002.1-4384.5,3002.1-4384.4,3002.2z"/>
		<path class="st2" d="M-4384.1,3002.9c0-0.1-0.1-0.1-0.1-0.2C-4384.2,3002.8-4384.2,3002.9-4384.1,3002.9
			C-4384.1,3002.9-4384.1,3002.9-4384.1,3002.9z"/>
		<path class="st2" d="M-4391.8,2991.9C-4391.8,2991.9-4391.8,2991.9-4391.8,2991.9C-4391.8,2991.9-4391.9,2991.8-4391.8,2991.9
			C-4391.9,2991.8-4391.9,2991.8-4391.8,2991.9C-4391.9,2991.8-4391.8,2991.9-4391.8,2991.9z"/>
		<polygon class="st2" points="-4389.1,2994.5 -4389.1,2994.5 -4389.1,2994.5 		"/>
		<path class="st2" d="M-4386.8,2997.7C-4386.8,2997.7-4386.8,2997.7-4386.8,2997.7C-4386.8,2997.7-4386.8,2997.7-4386.8,2997.7
			C-4386.8,2997.7-4386.8,2997.7-4386.8,2997.7z"/>
		<path class="st2" d="M-4386.7,2997.8L-4386.7,2997.8c0,0-0.1-0.1-0.1-0.1v0C-4386.7,2997.8-4386.7,2997.8-4386.7,2997.8z"/>
		<path class="st3" d="M-4394.1,2990.2C-4394.1,2990.2-4394.1,2990.2-4394.1,2990.2C-4394.1,2990.2-4394.1,2990.2-4394.1,2990.2
			c-0.1-0.1-0.1-0.1-0.2-0.1l0,0C-4394.2,2990.1-4394.2,2990.2-4394.1,2990.2z"/>
		<polygon class="st3" points="-4392.5,2991.3 -4392.5,2991.3 -4392.5,2991.3 		"/>
		<path class="st3" d="M-4398.7,2988C-4398.8,2988-4398.8,2988-4398.7,2988C-4398.8,2988-4398.7,2988-4398.7,2988
			C-4398.7,2988-4398.7,2988-4398.7,2988z"/>
		<path class="st3" d="M-4400,2987.7L-4400,2987.7c0,0-0.1,0-0.1,0c0,0,0,0,0,0C-4400.1,2987.7-4400.1,2987.7-4400,2987.7z"/>
		<polygon class="st3" points="-4394.8,2989.8 -4394.8,2989.8 -4394.8,2989.8 		"/>
		<path class="st3" d="M-4397.8,2988.3C-4397.8,2988.3-4397.9,2988.3-4397.8,2988.3C-4397.9,2988.3-4397.8,2988.3-4397.8,2988.3
			L-4397.8,2988.3z"/>
		<path class="st3" d="M-4392.9,2991c-0.1,0-0.1-0.1-0.2-0.1c0,0,0,0-0.1,0C-4393.1,2990.9-4393,2990.9-4392.9,2991z"/>
		<path class="st3" d="M-4398.2,2988.2c0,0-0.1,0-0.1,0C-4398.3,2988.2-4398.3,2988.2-4398.2,2988.2
			C-4398.2,2988.2-4398.2,2988.2-4398.2,2988.2z"/>
		<path class="st3" d="M-4386.8,2997.7C-4386.8,2997.7-4386.8,2997.7-4386.8,2997.7c0-0.1-0.1-0.1-0.1-0.1c0-0.1-0.1-0.1-0.1-0.2
			c-0.1-0.1-0.1-0.2-0.2-0.2c0-0.1-0.1-0.1-0.1-0.2c-0.1-0.1-0.1-0.2-0.2-0.2c0-0.1-0.1-0.1-0.1-0.2c0,0,0,0,0,0
			C-4387.3,2996.9-4387,2997.3-4386.8,2997.7z"/>
		<path class="st3" d="M-4402.3,2987.3C-4402.3,2987.3-4402.3,2987.3-4402.3,2987.3C-4402.3,2987.3-4402.3,2987.3-4402.3,2987.3
			C-4402.3,2987.3-4402.3,2987.3-4402.3,2987.3z"/>
		<path class="st3" d="M-4400.9,2987.5C-4400.9,2987.5-4400.9,2987.5-4400.9,2987.5C-4400.9,2987.5-4400.9,2987.5-4400.9,2987.5
			C-4400.9,2987.5-4401,2987.5-4400.9,2987.5C-4401,2987.5-4401,2987.5-4400.9,2987.5C-4400.9,2987.5-4400.9,2987.5-4400.9,2987.5z"
			/>
		<path class="st3" d="M-4402.8,2987.3C-4402.8,2987.3-4402.8,2987.3-4402.8,2987.3C-4402.8,2987.3-4402.8,2987.3-4402.8,2987.3
			C-4402.8,2987.3-4402.8,2987.3-4402.8,2987.3z"/>
		<path class="st3" d="M-4387.6,2996.5C-4387.6,2996.5-4387.6,2996.5-4387.6,2996.5C-4387.6,2996.4-4387.6,2996.4-4387.6,2996.5
			c-0.1-0.1-0.1-0.1-0.1-0.1C-4387.7,2996.4-4387.6,2996.4-4387.6,2996.5z"/>
		<path class="st3" d="M-4383,3006.5C-4383,3006.5-4383,3006.5-4383,3006.5c0-0.1,0-0.1-0.1-0.2c-0.1-0.2-0.1-0.4-0.2-0.7
			c0,0,0,0,0,0c0,0,0,0,0,0c0-0.1,0-0.2-0.1-0.2c0-0.1-0.1-0.2-0.1-0.3c0-0.1,0-0.2-0.1-0.2c0,0,0,0,0,0c0-0.1-0.1-0.2-0.1-0.3
			c0,0,0,0,0,0c0-0.1,0-0.1-0.1-0.2c0,0-0.1,0-0.1,0c-0.4,0-0.9,0-1.3,0c-0.4,0-0.9,0-1.3,0s-0.8,0-1.2,0c-0.4,0-0.7,0-1.1,0
			c-0.7,0-1.2-0.1-1.6-0.1c-0.2,0-0.3,0-0.4,0c-0.1,0-0.2,0-0.2,0s0.1,0,0.2,0c0.1,0,0.3,0,0.4,0c0.4,0,0.9-0.1,1.6-0.1
			c0.3,0,0.7,0,1.1,0c0.4,0,0.8,0,1.2,0c0.4,0,0.8,0,1.3,0c0.4,0,0.8,0,1.3,0c0,0,0-0.1,0-0.1c0,0,0,0,0,0c0,0,0,0,0,0
			c-0.1-0.2-0.1-0.4-0.2-0.6c0-0.1-0.1-0.1-0.1-0.2c0,0,0,0,0,0c0-0.1-0.1-0.1-0.1-0.2c0,0,0-0.1,0-0.1c0-0.1-0.1-0.2-0.1-0.2
			c0-0.1-0.1-0.2-0.1-0.2c0,0,0,0,0-0.1c0,0,0,0,0,0c0-0.1-0.1-0.1-0.1-0.2c0,0,0,0,0,0c0-0.1-0.1-0.2-0.1-0.3v0
			c0-0.1-0.1-0.1-0.1-0.2c-0.1-0.2-0.2-0.4-0.3-0.6c0,0,0,0,0,0c0,0,0,0,0,0c0-0.1-0.1-0.1-0.1-0.2c0-0.1-0.1-0.2-0.1-0.3
			c0-0.1-0.1-0.1-0.1-0.2c0,0,0-0.1-0.1-0.1c0-0.1-0.1-0.1-0.1-0.2c0,0,0,0,0,0c0-0.1-0.1-0.1-0.1-0.2c0-0.1-0.1-0.2-0.1-0.3
			c0,0,0,0,0,0l0,0c0-0.1-0.1-0.1-0.1-0.2c0,0,0,0,0,0l-40.4,15.8L-4383,3006.5L-4383,3006.5z"/>
		<path class="st3" d="M-4403.7,2987.2C-4403.7,2987.2-4403.7,2987.2-4403.7,2987.2L-4403.7,2987.2
			C-4403.7,2987.2-4403.7,2987.2-4403.7,2987.2C-4403.7,2987.2-4403.7,2987.2-4403.7,2987.2
			C-4403.7,2987.2-4403.7,2987.2-4403.7,2987.2z"/>
		<path class="st3" d="M-4396.2,2989c0,0-0.1,0-0.1-0.1v0C-4396.3,2989-4396.3,2989-4396.2,2989z"/>
		<path class="st3" d="M-4388.7,2995C-4388.7,2995-4388.7,2995-4388.7,2995C-4388.7,2995-4388.7,2995-4388.7,2995
			c-0.1-0.1-0.1-0.2-0.2-0.2c0,0,0,0,0,0c-0.1-0.1-0.1-0.2-0.2-0.2c0,0,0,0,0,0c0,0,0,0,0,0c0,0,0,0,0,0
			C-4389,2994.7-4388.9,2994.8-4388.7,2995z"/>
		<path class="st3" d="M-4400.6,2987.6C-4400.5,2987.6-4400.5,2987.6-4400.6,2987.6c0.1,0,0.1,0,0.1,0l0,0
			C-4400.5,2987.6-4400.5,2987.6-4400.6,2987.6C-4400.6,2987.6-4400.6,2987.6-4400.6,2987.6
			C-4400.6,2987.6-4400.6,2987.6-4400.6,2987.6z"/>
		<path class="st3" d="M-4403.2,2987.2C-4403.2,2987.2-4403.3,2987.2-4403.2,2987.2C-4403.3,2987.2-4403.3,2987.2-4403.2,2987.2
			C-4403.3,2987.2-4403.2,2987.2-4403.2,2987.2z"/>
		<path class="st3" d="M-4401.4,2987.4C-4401.4,2987.4-4401.4,2987.4-4401.4,2987.4C-4401.4,2987.4-4401.4,2987.4-4401.4,2987.4
			L-4401.4,2987.4z"/>
		<path class="st3" d="M-4399.1,2987.9C-4399.1,2987.9-4399.1,2987.9-4399.1,2987.9C-4399.1,2987.9-4399.2,2987.9-4399.1,2987.9
			L-4399.1,2987.9c-0.1,0-0.1,0-0.1,0c0,0,0,0,0,0C-4399.2,2987.9-4399.2,2987.9-4399.1,2987.9z"/>
		<path class="st3" d="M-4390.5,2993.1C-4390.5,2993.1-4390.5,2993.1-4390.5,2993.1C-4390.5,2993-4390.5,2993-4390.5,2993.1
			c-0.1-0.1-0.2-0.2-0.2-0.2c0,0,0,0,0,0C-4390.6,2993-4390.5,2993-4390.5,2993.1z"/>
		<path class="st3" d="M-4390.7,2992.8C-4390.7,2992.8-4390.7,2992.8-4390.7,2992.8C-4390.8,2992.8-4390.8,2992.8-4390.7,2992.8
			c-0.1-0.1-0.1-0.1-0.2-0.2c0,0,0,0,0,0c-0.1-0.1-0.2-0.1-0.2-0.2C-4391,2992.6-4390.9,2992.7-4390.7,2992.8z"/>
		<path class="st3" d="M-4401.9,2987.3C-4401.9,2987.3-4401.9,2987.3-4401.9,2987.3c0.1,0,0.1,0,0.1,0c0,0,0,0,0,0
			C-4401.8,2987.3-4401.9,2987.3-4401.9,2987.3L-4401.9,2987.3C-4401.9,2987.3-4401.9,2987.3-4401.9,2987.3z"/>
		<path class="st3" d="M-4393.5,2990.6C-4393.5,2990.6-4393.5,2990.6-4393.5,2990.6C-4393.5,2990.6-4393.5,2990.6-4393.5,2990.6
			c-0.1-0.1-0.1-0.1-0.1-0.1C-4393.6,2990.5-4393.5,2990.6-4393.5,2990.6z"/>
		<path class="st3" d="M-4399.7,2987.8C-4399.6,2987.8-4399.6,2987.8-4399.7,2987.8C-4399.6,2987.8-4399.6,2987.8-4399.7,2987.8
			C-4399.6,2987.8-4399.6,2987.8-4399.7,2987.8C-4399.6,2987.8-4399.6,2987.8-4399.7,2987.8
			C-4399.7,2987.8-4399.7,2987.8-4399.7,2987.8L-4399.7,2987.8z"/>
		<path class="st3" d="M-4391.8,2991.9C-4391.8,2991.9-4391.9,2991.8-4391.8,2991.9C-4391.9,2991.8-4391.9,2991.8-4391.8,2991.9
			c-0.1-0.1-0.1-0.1-0.1-0.1C-4391.9,2991.8-4391.9,2991.8-4391.8,2991.9z"/>
		<path class="st3" d="M-4391.5,2992.1C-4391.5,2992.1-4391.5,2992.1-4391.5,2992.1c-0.1-0.1-0.1-0.1-0.2-0.1c0,0,0,0,0,0
			c0,0,0,0,0,0C-4391.7,2992-4391.6,2992.1-4391.5,2992.1z"/>
		<path class="st3" d="M-4394,2990.3c0.1,0,0.1,0.1,0.2,0.1c0,0,0,0,0,0C-4393.8,2990.4-4393.9,2990.3-4394,2990.3
			C-4394,2990.3-4394,2990.3-4394,2990.3L-4394,2990.3z"/>
		<polygon class="st3" points="-4394.5,2990 -4394.5,2990 -4394.5,2990 		"/>
		<path class="st3" d="M-4392.1,2991.7C-4392.1,2991.6-4392.1,2991.6-4392.1,2991.7C-4392.1,2991.6-4392.1,2991.6-4392.1,2991.7
			c-0.1-0.1-0.1-0.1-0.2-0.2c0,0,0,0,0,0c0,0,0,0,0,0C-4392.2,2991.5-4392.2,2991.6-4392.1,2991.7z"/>
		<path class="st3" d="M-4392.6,2991.2C-4392.6,2991.2-4392.7,2991.2-4392.6,2991.2L-4392.6,2991.2c-0.1-0.1-0.2-0.1-0.2-0.2
			C-4392.8,2991.1-4392.7,2991.2-4392.6,2991.2z"/>
		<path class="st3" d="M-4389.8,2993.8C-4389.8,2993.8-4389.8,2993.8-4389.8,2993.8c0,0-0.1-0.1-0.1-0.1
			C-4389.8,2993.7-4389.8,2993.8-4389.8,2993.8C-4389.7,2993.9-4389.8,2993.8-4389.8,2993.8z"/>
		<path class="st3" d="M-4389.3,2994.3C-4389.3,2994.3-4389.4,2994.3-4389.3,2994.3c-0.1-0.1-0.1-0.1-0.1-0.1
			C-4389.4,2994.2-4389.4,2994.3-4389.3,2994.3z"/>
		<path class="st3" d="M-4390,2993.6c-0.1-0.1-0.1-0.1-0.2-0.2c0,0,0,0,0,0C-4390.1,2993.5-4390,2993.5-4390,2993.6
			C-4390,2993.6-4390,2993.6-4390,2993.6z"/>
		<path class="st3" d="M-4388.4,2995.4c0,0-0.1-0.1-0.1-0.1c0.1,0.1,0.1,0.2,0.2,0.3C-4388.3,2995.5-4388.4,2995.5-4388.4,2995.4z"
			/>
		<path class="st3" d="M-4394.5,2990L-4394.5,2990c0,0-0.1-0.1-0.1-0.1c0,0,0,0,0,0c0,0,0,0,0,0
			C-4394.6,2989.9-4394.5,2989.9-4394.5,2990z"/>
		<path class="st3" d="M-4387.9,2996.1c-0.1-0.1-0.1-0.2-0.2-0.2c-0.1-0.1-0.1-0.1-0.2-0.2c0,0,0,0,0,0
			C-4388.1,2995.8-4388,2995.9-4387.9,2996.1C-4387.9,2996.1-4387.9,2996.1-4387.9,2996.1z"/>
		<path class="st3" d="M-4390.4,2993.2C-4390.4,2993.2-4390.4,2993.2-4390.4,2993.2c0,0,0,0,0.1,0.1
			C-4390.3,2993.3-4390.3,2993.2-4390.4,2993.2z"/>
		<path class="st3" d="M-4397.6,2988.4c0.1,0,0.1,0,0.2,0.1C-4397.5,2988.5-4397.5,2988.5-4397.6,2988.4
			C-4397.5,2988.5-4397.5,2988.5-4397.6,2988.4C-4397.5,2988.4-4397.6,2988.4-4397.6,2988.4z"/>
		<rect x="-4395.9" y="2989.2" class="st3" width="0" height="0"/>
		<path class="st3" d="M-4391.3,2992.3c-0.1,0-0.1-0.1-0.2-0.1C-4391.4,2992.3-4391.3,2992.3-4391.3,2992.3
			C-4391.3,2992.4-4391.3,2992.3-4391.3,2992.3z"/>
		<path class="st3" d="M-4397,2988.7C-4397,2988.7-4397,2988.7-4397,2988.7C-4397,2988.7-4397,2988.7-4397,2988.7
			C-4397,2988.7-4397,2988.7-4397,2988.7c-0.1,0-0.1,0-0.1,0c0,0,0,0,0,0C-4397,2988.7-4397,2988.7-4397,2988.7z"/>
		<path class="st3" d="M-4389.7,2993.9c0.1,0.1,0.2,0.2,0.2,0.3C-4389.5,2994.1-4389.6,2994-4389.7,2993.9
			C-4389.6,2994-4389.6,2994-4389.7,2993.9C-4389.6,2994-4389.7,2993.9-4389.7,2993.9z"/>
		<path class="st3" d="M-4386.7,2997.7c0,0,0,0.1,0.1,0.1c0,0,0,0,0,0C-4386.7,2997.8-4386.7,2997.8-4386.7,2997.7z"/>
		<path class="st3" d="M-4395.3,2989.5c-0.1,0-0.1-0.1-0.2-0.1c0,0,0,0,0,0c0,0,0,0,0,0C-4395.4,2989.4-4395.4,2989.5-4395.3,2989.5
			z"/>
		<path class="st3" d="M-4388.5,2995.3C-4388.5,2995.2-4388.5,2995.2-4388.5,2995.3c-0.1-0.1-0.2-0.2-0.2-0.3
			C-4388.6,2995.1-4388.6,2995.2-4388.5,2995.3z"/>
		<path class="st3" d="M-4386.2,2998.6C-4386.2,2998.6-4386.2,2998.6-4386.2,2998.6c-0.1-0.1-0.1-0.2-0.2-0.3c0,0,0,0,0,0
			c0,0-0.1-0.1-0.1-0.1c0,0,0,0,0-0.1l0,0C-4386.4,2998.3-4386.3,2998.5-4386.2,2998.6z"/>
		<path class="st3" d="M-4395.1,2989.6C-4395.1,2989.6-4395.1,2989.6-4395.1,2989.6c0,0,0.1,0.1,0.2,0.1c0,0,0,0,0,0
			C-4395,2989.7-4395,2989.7-4395.1,2989.6C-4395,2989.6-4395,2989.6-4395.1,2989.6C-4395.1,2989.6-4395.1,2989.6-4395.1,2989.6z"/>
		<path class="st3" d="M-4396.5,2988.9C-4396.6,2988.9-4396.6,2988.9-4396.5,2988.9L-4396.5,2988.9c-0.1,0-0.1-0.1-0.2-0.1
			C-4396.7,2988.8-4396.6,2988.8-4396.5,2988.9z"/>
		<polygon class="st3" points="-4393.2,2990.8 -4393.2,2990.8 -4393.2,2990.8 		"/>
		<path class="st4" d="M-4403.1,2987.2L-4403.1,2987.2C-4403.1,2987.2-4403.1,2987.2-4403.1,2987.2
			C-4403.2,2987.2-4403.1,2987.2-4403.1,2987.2C-4403.1,2987.2-4403.1,2987.2-4403.1,2987.2z"/>
		<path class="st4" d="M-4399.7,2987.8c0,0,0.1,0,0.1,0C-4399.6,2987.8-4399.6,2987.8-4399.7,2987.8
			C-4399.7,2987.8-4399.7,2987.8-4399.7,2987.8C-4399.7,2987.8-4399.7,2987.8-4399.7,2987.8
			C-4399.7,2987.7-4399.8,2987.7-4399.7,2987.8c-0.1,0-0.1,0-0.2,0C-4399.8,2987.7-4399.8,2987.7-4399.7,2987.8z"/>
		<path class="st4" d="M-4395.7,2989.3C-4395.7,2989.3-4395.7,2989.3-4395.7,2989.3C-4395.7,2989.3-4395.7,2989.3-4395.7,2989.3
			c-0.1,0-0.2-0.1-0.3-0.1c0,0,0,0,0,0c0,0,0,0-0.1,0c0,0-0.1,0-0.1,0c0,0-0.1,0-0.1,0c0,0,0,0,0,0c0,0-0.1,0-0.1-0.1l0,0
			c0,0-0.1,0-0.1-0.1l0,0c0,0,0,0-0.1,0c-0.1,0-0.1-0.1-0.2-0.1c0,0,0,0,0,0c-0.1,0-0.1-0.1-0.2-0.1c0,0,0,0,0,0
			C-4396.5,2988.9-4396.1,2989.1-4395.7,2989.3z"/>
		<path class="st4" d="M-4402,2987.3c-0.1,0-0.1,0-0.2,0c0,0,0,0,0,0C-4402.1,2987.3-4402.1,2987.3-4402,2987.3z"/>
		<path class="st4" d="M-4399.9,2987.7C-4399.9,2987.7-4399.9,2987.7-4399.9,2987.7C-4399.9,2987.7-4399.9,2987.7-4399.9,2987.7
			C-4400,2987.7-4399.9,2987.7-4399.9,2987.7z"/>
		<path class="st4" d="M-4400.9,2987.5C-4401,2987.5-4401,2987.5-4400.9,2987.5C-4401,2987.5-4401,2987.5-4400.9,2987.5
			c-0.1,0-0.2,0-0.3-0.1c0,0,0,0,0,0C-4401.2,2987.5-4401,2987.5-4400.9,2987.5z"/>
		<path class="st4" d="M-4401.7,2987.4c0,0-0.1,0-0.1,0C-4401.8,2987.4-4401.7,2987.4-4401.7,2987.4
			C-4401.7,2987.4-4401.7,2987.4-4401.7,2987.4z"/>
		<polygon class="st4" points="-4402.7,2987.3 -4402.7,2987.3 -4402.7,2987.3 		"/>
		<path class="st4" d="M-4403.3,2987.2C-4403.3,2987.2-4403.3,2987.2-4403.3,2987.2C-4403.3,2987.2-4403.3,2987.2-4403.3,2987.2
			L-4403.3,2987.2C-4403.3,2987.2-4403.3,2987.2-4403.3,2987.2C-4403.3,2987.2-4403.3,2987.2-4403.3,2987.2
			C-4403.3,2987.2-4403.3,2987.2-4403.3,2987.2z"/>
		<path class="st4" d="M-4402.4,2987.3C-4402.4,2987.3-4402.4,2987.3-4402.4,2987.3c-0.1,0-0.1,0-0.1,0c0,0-0.1,0-0.1,0
			C-4402.5,2987.3-4402.4,2987.3-4402.4,2987.3z"/>
		<path class="st4" d="M-4394.5,2990C-4394.5,2990-4394.5,2990-4394.5,2990c0.4,0.2,0.8,0.5,1.2,0.8c-0.1,0-0.1-0.1-0.2-0.1
			c0,0-0.1-0.1-0.1-0.1c0,0,0,0,0,0c0,0,0,0,0,0c0,0,0,0-0.1,0c0,0,0,0,0,0c-0.1,0-0.1-0.1-0.2-0.1c0,0,0,0,0,0c0,0-0.1-0.1-0.1-0.1
			c0,0,0,0,0,0c-0.1,0-0.1-0.1-0.2-0.1v0C-4394.3,2990-4394.4,2990-4394.5,2990C-4394.4,2990-4394.4,2990-4394.5,2990
			C-4394.4,2990-4394.4,2990-4394.5,2990z"/>
		<path class="st4" d="M-4402.8,2987.3C-4402.8,2987.3-4402.8,2987.3-4402.8,2987.3C-4402.7,2987.3-4402.8,2987.3-4402.8,2987.3
			C-4402.8,2987.3-4402.8,2987.3-4402.8,2987.3C-4402.8,2987.3-4402.8,2987.3-4402.8,2987.3c0,0-0.1,0-0.1,0c0,0,0,0,0,0
			c0,0,0,0,0,0c0,0,0,0,0,0C-4402.9,2987.2-4402.9,2987.2-4402.8,2987.3z"/>
		<path class="st4" d="M-4401.9,2987.3C-4401.9,2987.3-4401.9,2987.3-4401.9,2987.3C-4401.9,2987.3-4401.9,2987.3-4401.9,2987.3
			C-4401.9,2987.3-4401.9,2987.3-4401.9,2987.3C-4401.9,2987.3-4401.9,2987.3-4401.9,2987.3L-4401.9,2987.3
			C-4401.9,2987.3-4401.9,2987.3-4401.9,2987.3z"/>
		<path class="st4" d="M-4400.3,2987.6C-4400.3,2987.6-4400.3,2987.6-4400.3,2987.6C-4400.3,2987.6-4400.3,2987.6-4400.3,2987.6
			C-4400.3,2987.6-4400.4,2987.6-4400.3,2987.6C-4400.4,2987.6-4400.4,2987.6-4400.3,2987.6z"/>
		<path class="st4" d="M-4401.3,2987.4C-4401.3,2987.4-4401.3,2987.4-4401.3,2987.4C-4401.3,2987.4-4401.3,2987.4-4401.3,2987.4
			C-4401.3,2987.4-4401.3,2987.4-4401.3,2987.4z"/>
		<path class="st4" d="M-4403.6,2987.2c0,0,0.1,0,0.1,0C-4403.5,2987.2-4403.5,2987.2-4403.6,2987.2L-4403.6,2987.2
			C-4403.6,2987.2-4403.6,2987.2-4403.6,2987.2C-4403.6,2987.2-4403.6,2987.2-4403.6,2987.2z"/>
		<path class="st4" d="M-4400.7,2987.5c0,0,0.1,0,0.1,0l0,0C-4400.6,2987.5-4400.7,2987.5-4400.7,2987.5
			C-4400.7,2987.5-4400.8,2987.5-4400.7,2987.5C-4400.8,2987.5-4400.8,2987.5-4400.7,2987.5
			C-4400.8,2987.5-4400.8,2987.5-4400.7,2987.5z"/>
		<path class="st4" d="M-4397.8,2988.4C-4397.8,2988.4-4397.8,2988.3-4397.8,2988.4c-0.1,0-0.1,0-0.1,0c0,0,0,0-0.1,0
			c0,0-0.1,0-0.1,0v0c0,0-0.1,0-0.1,0c0,0,0,0,0,0c0,0,0,0,0,0C-4398.1,2988.3-4397.9,2988.3-4397.8,2988.4z"/>
		<path class="st4" d="M-4400.6,2987.6C-4400.6,2987.6-4400.5,2987.6-4400.6,2987.6C-4400.5,2987.6-4400.5,2987.6-4400.6,2987.6
			C-4400.5,2987.6-4400.5,2987.6-4400.6,2987.6z"/>
		<path class="st4" d="M-4401.5,2987.4c0,0,0.1,0,0.1,0C-4401.4,2987.4-4401.4,2987.4-4401.5,2987.4
			C-4401.4,2987.4-4401.4,2987.4-4401.5,2987.4C-4401.4,2987.4-4401.4,2987.4-4401.5,2987.4
			C-4401.5,2987.4-4401.5,2987.4-4401.5,2987.4c0,0-0.1,0-0.1,0C-4401.6,2987.4-4401.5,2987.4-4401.5,2987.4z"/>
		<path class="st4" d="M-4394.5,2990c-0.1,0-0.1-0.1-0.2-0.1c-0.1,0-0.1-0.1-0.2-0.1c0,0,0,0,0,0c0,0,0,0,0,0c0,0,0,0-0.1,0
			C-4394.7,2989.8-4394.6,2989.9-4394.5,2990z"/>
		<path class="st4" d="M-4395.3,2989.5C-4395.3,2989.5-4395.3,2989.5-4395.3,2989.5C-4395.3,2989.5-4395.3,2989.5-4395.3,2989.5
			c-0.1-0.1-0.2-0.1-0.2-0.1c0,0,0,0,0,0c0,0-0.1,0-0.1-0.1c0,0,0,0,0,0C-4395.5,2989.4-4395.4,2989.4-4395.3,2989.5z"/>
		<path class="st4" d="M-4394.9,2989.7C-4394.9,2989.7-4394.9,2989.7-4394.9,2989.7C-4395,2989.7-4395,2989.7-4394.9,2989.7
			c-0.2-0.1-0.2-0.1-0.3-0.2c0,0,0,0,0,0c0,0-0.1,0-0.1-0.1C-4395.1,2989.6-4395,2989.7-4394.9,2989.7z"/>
		<path class="st4" d="M-4399.4,2987.8c0.1,0,0.1,0,0.2,0.1c0,0,0,0,0,0c0,0-0.1,0-0.1,0c0,0,0,0,0,0c-0.1,0-0.2,0-0.2-0.1
			C-4399.5,2987.8-4399.4,2987.8-4399.4,2987.8z"/>
		<path class="st4" d="M-4398.8,2988c0,0,0.1,0,0.1,0c0,0,0,0,0,0C-4398.7,2988-4398.7,2988-4398.8,2988L-4398.8,2988
			C-4398.7,2988-4398.8,2988-4398.8,2988C-4398.8,2988-4398.8,2988-4398.8,2988C-4398.9,2988-4398.9,2988-4398.8,2988
			C-4398.8,2988-4398.8,2988-4398.8,2988z"/>
		<path class="st4" d="M-4399,2988C-4398.9,2988-4398.9,2988-4399,2988c0,0,0,0-0.1,0C-4399,2987.9-4399,2988-4399,2988z"/>
		<path class="st4" d="M-4397.4,2988.5C-4397.4,2988.5-4397.4,2988.5-4397.4,2988.5C-4397.4,2988.5-4397.4,2988.5-4397.4,2988.5
			c-0.1,0-0.2-0.1-0.2-0.1c0,0,0,0,0,0c0,0,0,0,0,0c0,0-0.1,0-0.1-0.1C-4397.6,2988.4-4397.5,2988.5-4397.4,2988.5z"/>
		<path class="st4" d="M-4398.6,2988.1C-4398.6,2988.1-4398.6,2988.1-4398.6,2988.1C-4398.6,2988.1-4398.6,2988.1-4398.6,2988.1
			C-4398.6,2988.1-4398.6,2988.1-4398.6,2988.1z"/>
		<path class="st4" d="M-4397,2988.7c0,0-0.1,0-0.1-0.1l0,0c-0.1,0-0.1-0.1-0.2-0.1C-4397.2,2988.6-4397.1,2988.6-4397,2988.7z"/>
		<path class="st4" d="M-4400.1,2987.7c0,0,0.1,0,0.1,0c0,0,0,0,0,0C-4400,2987.7-4400,2987.7-4400.1,2987.7L-4400.1,2987.7
			C-4400.1,2987.7-4400.1,2987.7-4400.1,2987.7C-4400.2,2987.6-4400.2,2987.6-4400.1,2987.7
			C-4400.2,2987.6-4400.2,2987.6-4400.1,2987.7c-0.1,0-0.1,0-0.1,0C-4400.2,2987.6-4400.2,2987.6-4400.1,2987.7z"/>
		<path class="st4" d="M-4386.2,2998.6c-0.1-0.2-0.2-0.3-0.3-0.5c-0.2,0-0.4,0-0.7,0c-0.7,0-1.2-0.1-1.6-0.1c-0.2,0-0.3,0-0.4,0
			c-0.1,0-0.2,0-0.2,0s0.1,0,0.2,0c0.1,0,0.3,0,0.4,0c0.4,0,0.9-0.1,1.6-0.1c0.1,0,0.3,0,0.5,0c0,0,0-0.1-0.1-0.1v0c0,0,0,0,0,0
			c0,0,0,0,0,0c-0.3-0.4-0.5-0.8-0.8-1.2c0,0,0,0,0,0c0,0,0,0,0,0c0,0,0,0,0,0c0,0-0.1-0.1-0.1-0.1c-0.1-0.1-0.1-0.1-0.2-0.2
			c-0.1-0.2-0.3-0.3-0.4-0.5c0,0,0,0,0,0c-0.1-0.1-0.1-0.2-0.2-0.3c0,0,0,0,0,0c-0.1-0.1-0.1-0.2-0.2-0.3c0,0,0,0,0,0
			c-0.1-0.2-0.3-0.3-0.4-0.5c-0.1-0.1-0.1-0.1-0.2-0.2c0,0-0.1-0.1-0.1-0.1c0,0,0,0,0,0c0,0,0,0,0,0l0,0c-0.1-0.1-0.2-0.2-0.2-0.3
			c0,0,0,0,0,0c0,0,0,0,0,0c0,0,0,0,0,0c-0.1-0.1-0.1-0.1-0.2-0.2c0,0,0,0,0-0.1c-0.1-0.1-0.2-0.2-0.2-0.2c0,0-0.1-0.1-0.1-0.1
			c-0.1-0.1-0.1-0.1-0.2-0.2c0,0,0,0,0,0v0c-0.1-0.1-0.2-0.1-0.2-0.2c0,0,0,0,0,0c0,0,0,0,0,0c0,0,0,0,0,0c-0.1-0.1-0.3-0.3-0.4-0.4
			c0,0-0.1,0-0.1-0.1c-0.1-0.1-0.1-0.1-0.2-0.2c0,0,0,0,0,0c0,0,0,0,0,0c0,0,0,0-0.1-0.1c0,0,0,0,0,0c-0.1-0.1-0.1-0.1-0.2-0.2
			c0,0,0,0,0,0c0,0-0.1,0-0.1-0.1c0,0,0,0,0,0c0,0-0.1-0.1-0.1-0.1c0,0-0.1-0.1-0.2-0.1c-0.1-0.1-0.1-0.1-0.2-0.2
			c-0.1-0.1-0.1-0.1-0.2-0.2c0,0,0,0,0,0c0,0,0,0,0,0c0,0,0,0,0,0c0,0,0,0,0,0c0,0,0,0,0,0c-0.1-0.1-0.1-0.1-0.2-0.2c0,0,0,0,0,0
			c0,0-0.1-0.1-0.1-0.1c0,0,0,0,0,0c-0.1-0.1-0.1-0.1-0.2-0.2c0,0-0.1,0-0.1-0.1c0,0,0,0,0,0c0,0,0,0,0,0c0.9,0.6,1.8,1.3,2.6,2.1
			l-35.6,22l40.4-15.8C-4386,2998.9-4386.1,2998.8-4386.2,2998.6z"/>
		<path class="st4" d="M-4398.5,2988.1c0.1,0,0.2,0.1,0.3,0.1c0,0-0.1,0-0.1,0c0,0,0,0,0,0
			C-4398.4,2988.1-4398.5,2988.1-4398.5,2988.1L-4398.5,2988.1z"/>
		<path class="st5" d="M-4399.6,2987.8c0,0-0.1,0-0.1,0c0.1,0,0.2,0.1,0.4,0.1C-4399.4,2987.8-4399.5,2987.8-4399.6,2987.8
			L-4399.6,2987.8C-4399.5,2987.8-4399.5,2987.8-4399.6,2987.8C-4399.6,2987.8-4399.6,2987.8-4399.6,2987.8
			C-4399.6,2987.8-4399.6,2987.8-4399.6,2987.8z"/>
		<path class="st5" d="M-4402.2,2987.3C-4402.2,2987.3-4402.2,2987.3-4402.2,2987.3L-4402.2,2987.3c-0.1,0-0.1,0-0.1,0h0
			c0,0,0,0,0,0C-4402.3,2987.3-4402.2,2987.3-4402.2,2987.3z"/>
		<path class="st5" d="M-4403.7,2987.2c0,0,0.1,0,0.1,0c0,0,0,0,0,0c0,0,0,0,0,0L-4403.7,2987.2
			C-4403.6,2987.2-4403.7,2987.2-4403.7,2987.2L-4403.7,2987.2C-4403.7,2987.2-4403.7,2987.2-4403.7,2987.2z"/>
		<path class="st5" d="M-4401.9,2987.3C-4401.9,2987.3-4401.9,2987.3-4401.9,2987.3c0,0,0.1,0,0.2,0c0,0,0,0-0.1,0c0,0,0,0,0,0
			C-4401.8,2987.4-4401.8,2987.4-4401.9,2987.3C-4401.8,2987.4-4401.8,2987.4-4401.9,2987.3
			C-4401.8,2987.3-4401.9,2987.3-4401.9,2987.3z"/>
		<path class="st5" d="M-4400.5,2987.6C-4400.5,2987.6-4400.5,2987.6-4400.5,2987.6c0,0,0.1,0,0.2,0
			C-4400.4,2987.6-4400.4,2987.6-4400.5,2987.6L-4400.5,2987.6C-4400.4,2987.6-4400.4,2987.6-4400.5,2987.6L-4400.5,2987.6
			C-4400.5,2987.6-4400.5,2987.6-4400.5,2987.6z"/>
		<path class="st5" d="M-4400.9,2987.5c0.1,0,0.1,0,0.2,0C-4400.8,2987.5-4400.8,2987.5-4400.9,2987.5
			C-4400.8,2987.5-4400.8,2987.5-4400.9,2987.5C-4400.8,2987.5-4400.8,2987.5-4400.9,2987.5
			C-4400.9,2987.5-4400.9,2987.5-4400.9,2987.5C-4400.9,2987.5-4400.9,2987.5-4400.9,2987.5
			C-4400.9,2987.5-4400.9,2987.5-4400.9,2987.5z"/>
		<path class="st5" d="M-4399.1,2987.9C-4399.1,2987.9-4399.2,2987.9-4399.1,2987.9c0,0,0.1,0,0.2,0
			C-4399,2988-4399,2987.9-4399.1,2987.9C-4399.1,2987.9-4399.1,2987.9-4399.1,2987.9C-4399.1,2987.9-4399.1,2987.9-4399.1,2987.9
			L-4399.1,2987.9C-4399.1,2987.9-4399.1,2987.9-4399.1,2987.9C-4399.1,2987.9-4399.1,2987.9-4399.1,2987.9z"/>
		<path class="st5" d="M-4398.8,2988c0.1,0,0.1,0,0.2,0.1c0,0,0,0-0.1,0l0,0c0,0,0,0,0,0l0,0C-4398.7,2988-4398.7,2988-4398.8,2988z
			"/>
		<path class="st5" d="M-4400.1,2987.7c0.1,0,0.1,0,0.2,0c0,0,0,0-0.1,0c0,0,0,0,0,0c0,0,0,0,0,0c0,0,0,0,0,0
			C-4400,2987.7-4400.1,2987.7-4400.1,2987.7z"/>
		<path class="st5" d="M-4403.3,2987.2c0,0,0.1,0,0.1,0c0,0,0,0,0,0l0,0C-4403.2,2987.2-4403.2,2987.2-4403.3,2987.2L-4403.3,2987.2
			C-4403.2,2987.2-4403.3,2987.2-4403.3,2987.2C-4403.3,2987.2-4403.3,2987.2-4403.3,2987.2z"/>
		<path class="st5" d="M-4402.8,2987.3c0,0,0.1,0,0.1,0L-4402.8,2987.3L-4402.8,2987.3L-4402.8,2987.3
			C-4402.7,2987.3-4402.7,2987.3-4402.8,2987.3C-4402.7,2987.3-4402.7,2987.3-4402.8,2987.3
			C-4402.8,2987.3-4402.8,2987.3-4402.8,2987.3z"/>
		<path class="st5" d="M-4401.5,2987.4c0.1,0,0.1,0,0.2,0c0,0,0,0,0,0c0,0,0,0,0,0l0,0c0,0,0,0,0,0c0,0,0,0,0,0
			C-4401.4,2987.4-4401.4,2987.4-4401.5,2987.4z"/>
		<path class="st5" d="M-4393.3,2990.8C-4393.3,2990.8-4393.3,2990.7-4393.3,2990.8c-0.4-0.3-0.8-0.5-1.2-0.8c0,0,0,0,0,0
			c0,0,0,0,0,0l0,0c-0.1-0.1-0.3-0.2-0.4-0.2c0,0,0,0,0,0c-0.1-0.1-0.3-0.1-0.4-0.2c0,0,0,0,0,0c-0.1-0.1-0.3-0.1-0.4-0.2h0
			c0,0,0,0,0,0l0,0c-0.4-0.2-0.8-0.4-1.2-0.6v0c0,0,0,0,0,0l0,0c0,0,0,0,0,0c-0.1-0.1-0.2-0.1-0.4-0.1c0,0,0,0-0.1,0
			c-0.1-0.1-0.3-0.1-0.4-0.2h0c0,0,0,0,0,0l0,0c-0.1,0-0.3-0.1-0.4-0.1l0,0c0,0,0,0-0.1,0c0,0,0,0,0,0c0,0,0,0,0,0
			c-0.1,0-0.2-0.1-0.3-0.1l-27.8,26.7l35.6-22C-4391.5,2992.1-4392.4,2991.4-4393.3,2990.8z"/>
		<path class="st6" d="M-4398.5,2988.1C-4398.5,2988.1-4398.5,2988.1-4398.5,2988.1L-4398.5,2988.1
			C-4398.6,2988.1-4398.6,2988.1-4398.5,2988.1c-0.1,0-0.2-0.1-0.2-0.1c0,0-0.1,0-0.1,0c0,0,0,0,0,0c0,0-0.1,0-0.1,0
			c-0.1,0-0.1,0-0.2-0.1c-0.1,0-0.1,0-0.2-0.1c-0.1,0-0.2-0.1-0.4-0.1c-0.1,0-0.1,0-0.2,0c0,0,0,0,0,0c0,0,0,0,0,0
			c-0.1,0-0.1,0-0.2,0c0,0-0.1,0-0.1,0c0,0,0,0,0,0c0,0-0.1,0-0.1,0c-0.1,0-0.1,0-0.2,0c0,0,0,0,0,0c0,0,0,0,0,0c0,0,0,0,0,0
			c0,0,0,0,0,0c-0.1,0-0.1,0-0.1,0c-0.1,0-0.1,0-0.2,0c0,0,0,0,0,0c-0.1,0-0.2,0-0.3-0.1c0,0,0,0,0,0c0,0,0,0,0,0c0,0,0,0,0,0
			c0,0,0,0,0,0c0,0,0,0,0,0c-0.1,0-0.1,0-0.2,0c0,0-0.1,0-0.1,0c0,0,0,0,0,0c0,0,0,0-0.1,0c0,0,0,0,0,0c0,0,0,0-0.1,0
			c-0.1,0-0.1,0-0.2,0c0,0,0,0,0,0v0c0,0,0,0-0.1,0c0,0,0,0,0,0c-0.1,0-0.1,0-0.2,0c-0.1,0-0.1,0-0.2,0c0,0,0,0,0,0v0c0,0,0,0,0,0
			c0,0,0,0,0,0c-0.1,0-0.2,0-0.3,0c0,0,0,0,0,0c0,0-0.1,0-0.1,0l0,0c0,0-0.1,0-0.1,0c-0.1,0-0.1,0-0.2,0c0,0,0,0,0,0c0,0,0,0,0,0
			c0,0,0,0,0,0l0,0c0,0,0,0-0.1,0c0,0-0.1,0-0.1,0c0,0,0,0,0,0c0,0,0,0,0,0c0,0-0.1,0-0.1,0c0,0,0,0,0,0c0,0-0.1,0-0.1,0
			c0,0-0.1,0-0.1,0c0,0,0,0,0,0c0,0,0,0,0,0c0,0,0,0-0.1,0c-0.1,0-0.2,0-0.4,0c-3.6,0-7,1.1-10,3c0.3,0,0.5,0,0.8,0
			c0.4,0,0.9,0,1.3,0c0.4,0,0.8,0,1.2,0c0.4,0,0.7,0,1.1,0c0.7,0,1.2,0.1,1.6,0.1c0.2,0,0.3,0,0.4,0c0.1,0,0.2,0,0.2,0s-0.1,0-0.2,0
			c-0.1,0-0.3,0-0.4,0c-0.4,0-0.9,0.1-1.6,0.1c-0.3,0-0.7,0-1.1,0c-0.4,0-0.8,0-1.2,0c-0.4,0-0.8,0-1.3,0c-0.4,0-0.9,0-1.3,0
			c-0.1,0-0.1,0-0.2,0c-1,0.7-2,1.5-2.9,2.4c0.4,0,0.7,0,1.1,0c0.4,0,0.7,0,1.1,0c0.7,0,1.2,0.1,1.6,0.1c0.2,0,0.3,0,0.4,0
			c0.1,0,0.2,0,0.2,0s-0.1,0-0.2,0c-0.1,0-0.3,0-0.4,0c-0.4,0-0.9,0.1-1.6,0.1c-0.3,0-0.7,0-1.1,0c-0.4,0-0.8,0-1.2,0
			c-0.1,0-0.2,0-0.3,0c-1.5,1.6-2.9,3.4-4.1,5.4c0.2,0,0.3,0,0.5,0c0.4,0,0.9,0,1.3,0c0.4,0,0.9,0,1.3,0c0.4,0,0.9,0,1.3,0
			c0.4,0,0.8,0,1.2,0c0.4,0,0.7,0,1.1,0c0.7,0,1.2,0.1,1.6,0.1c0.2,0,0.3,0,0.4,0c0.1,0,0.2,0,0.2,0s-0.1,0-0.2,0
			c-0.1,0-0.3,0-0.4,0c-0.4,0-0.9,0.1-1.6,0.1c-0.3,0-0.7,0-1.1,0c-0.4,0-0.8,0-1.2,0c-0.4,0-0.8,0-1.3,0c-0.4,0-0.9,0-1.3,0
			c-0.4,0-0.9,0-1.3,0c-0.2,0-0.5,0-0.7,0c-1.5,2.7-2.6,5.8-3.3,9.1c0.3,0,0.6,0,0.8,0c0.4,0,0.7,0,1.1,0c0.7,0,1.2,0.1,1.6,0.1
			c0.2,0,0.3,0,0.4,0c0.1,0,0.2,0,0.2,0s-0.1,0-0.2,0c-0.1,0-0.3,0-0.4,0c-0.4,0-0.9,0.1-1.6,0.1c-0.3,0-0.7,0-1.1,0
			c-0.3,0-0.6,0-0.9,0c-0.4,2-0.6,4-0.6,6.1L-4398.5,2988.1L-4398.5,2988.1z"/>
		<path class="st7" d="M-4413.4,2990.6c0.4,0,0.9,0,1.3,0c0.4,0,0.8,0,1.2,0c0.4,0,0.7,0,1.1,0c0.7,0,1.2-0.1,1.6-0.1
			c0.2,0,0.3,0,0.4,0c0.1,0,0.2,0,0.2,0s-0.1,0-0.2,0c-0.1,0-0.3,0-0.4,0c-0.4,0-0.9-0.1-1.6-0.1c-0.3,0-0.7,0-1.1,0
			c-0.4,0-0.8,0-1.2,0c-0.4,0-0.8,0-1.3,0c-0.3,0-0.5,0-0.8,0c-0.2,0.1-0.4,0.3-0.7,0.4c0.1,0,0.1,0,0.2,0
			C-4414.2,2990.6-4413.8,2990.6-4413.4,2990.6z"/>
		<path class="st7" d="M-4385,3003.9c-0.4,0-0.9,0-1.3,0c-0.4,0-0.8,0-1.2,0c-0.4,0-0.7,0-1.1,0c-0.7,0-1.2,0.1-1.6,0.1
			c-0.2,0-0.3,0-0.4,0c-0.1,0-0.2,0-0.2,0s0.1,0,0.2,0c0.1,0,0.3,0,0.4,0c0.4,0,0.9,0.1,1.6,0.1c0.3,0,0.7,0,1.1,0
			c0.4,0,0.8,0,1.2,0s0.8,0,1.3,0c0.4,0,0.9,0,1.3,0c0,0,0.1,0,0.1,0c0,0,0,0,0-0.1c0-0.1-0.1-0.2-0.1-0.3c0,0,0,0,0-0.1
			C-4384.2,3003.9-4384.6,3003.9-4385,3003.9z"/>
		<path class="st7" d="M-4416.7,2993.4c0.4,0,0.7,0,1.1,0c0.7,0,1.2-0.1,1.6-0.1c0.2,0,0.3,0,0.4,0c0.1,0,0.2,0,0.2,0s-0.1,0-0.2,0
			c-0.1,0-0.3,0-0.4,0c-0.4,0-0.9-0.1-1.6-0.1c-0.3,0-0.7,0-1.1,0c-0.3,0-0.7,0-1.1,0c-0.1,0.1-0.3,0.3-0.4,0.4c0.1,0,0.2,0,0.3,0
			C-4417.5,2993.4-4417.1,2993.4-4416.7,2993.4z"/>
		<path class="st7" d="M-4420.4,2999.3c0.4,0,0.9,0,1.3,0c0.4,0,0.9,0,1.3,0c0.4,0,0.8,0,1.2,0c0.4,0,0.7,0,1.1,0
			c0.7,0,1.2-0.1,1.6-0.1c0.2,0,0.3,0,0.4,0c0.1,0,0.2,0,0.2,0s-0.1,0-0.2,0c-0.1,0-0.3,0-0.4,0c-0.4,0-0.9-0.1-1.6-0.1
			c-0.3,0-0.7,0-1.1,0c-0.4,0-0.8,0-1.2,0c-0.4,0-0.8,0-1.3,0c-0.4,0-0.9,0-1.3,0c-0.4,0-0.9,0-1.3,0c-0.2,0-0.3,0-0.5,0
			c-0.1,0.1-0.2,0.3-0.2,0.4c0.2,0,0.5,0,0.7,0C-4421.3,2999.3-4420.9,2999.3-4420.4,2999.3z"/>
		<path class="st7" d="M-4423.8,3008.7c0.7,0,1.2-0.1,1.6-0.1c0.2,0,0.3,0,0.4,0c0.1,0,0.2,0,0.2,0s-0.1,0-0.2,0c-0.1,0-0.3,0-0.4,0
			c-0.4,0-0.9-0.1-1.6-0.1c-0.3,0-0.7,0-1.1,0c-0.3,0-0.5,0-0.8,0c0,0.1,0,0.3-0.1,0.4c0.3,0,0.6,0,0.9,0
			C-4424.5,3008.7-4424.2,3008.7-4423.8,3008.7z"/>
		<path class="st7" d="M-4383.4,3008.4c-0.7,0-1.2,0.1-1.6,0.1c-0.2,0-0.3,0-0.4,0c-0.1,0-0.2,0-0.2,0s0.1,0,0.2,0
			c0.1,0,0.3,0,0.4,0c0.4,0,0.9,0.1,1.6,0.1c0.3,0,0.6,0,0.9,0c0-0.1,0-0.2-0.1-0.3l0,0C-4382.9,3008.4-4383.2,3008.4-4383.4,3008.4
			z"/>
		<path class="st7" d="M-4386.7,2997.8c-0.2,0-0.3,0-0.5,0c-0.7,0-1.2,0.1-1.6,0.1c-0.2,0-0.3,0-0.4,0c-0.1,0-0.2,0-0.2,0
			s0.1,0,0.2,0c0.1,0,0.3,0,0.4,0c0.4,0,0.9,0.1,1.6,0.1c0.2,0,0.4,0,0.7,0h0c0,0,0,0,0-0.1
			C-4386.6,2998-4386.6,2997.9-4386.7,2997.8C-4386.7,2997.9-4386.7,2997.9-4386.7,2997.8L-4386.7,2997.8
			C-4386.7,2997.8-4386.7,2997.8-4386.7,2997.8z"/>
	</g>
	<line class="st2" x1="-4426.3" y1="3014.8" x2="-4378.1" y2="3014.8"/>
	<g>
		<path class="st8" d="M-4405.6,3012.9c0,0,1.3-1.8,2.8-1.6c1.5,0.1,1.9,1.5,2.7,0.8c3.3-3.1,4-1.5,7.6-2.2c2.7-0.6,5.1-2.8,7.7,0.4
			c2.7,3.2,2.5,4.1,2.5,4.1L-4405.6,3012.9z"/>
		<path class="st8" d="M-4379.2,3014.8c0,0,0-0.1,0-0.1c0-1.3-11.1-2.3-24.7-2.3c-13.6,0-24.7,1-24.7,2.3c0,0,0,0.1,0,0.1H-4379.2z"
			/>
		<g>
			<path class="st8" d="M-4408.3,3005.7c-0.1,0-0.1,0-0.2,0c0.6,0,1.2,0.3,1.2,0.7h0v6.5h0.2v-6.5h0
				C-4407.1,3006.1-4407.7,3005.7-4408.3,3005.7z"/>
			<path class="st8" d="M-4407.3,2998.8l-12,3.3l-1.1,3.6l1.2,0.5v6.8h9.5v-6.6h0c0.1-0.4,0.7-0.8,1.4-0.8c0.7,0,1.3,0.3,1.4,0.8h0
				v6.6h0.8v-7.6l0.8-0.6L-4407.3,2998.8z M-4418.1,3006.4l-0.4,3.1l-0.1-3.6l8-1.4L-4418.1,3006.4z M-4407.6,3000.5l-1.1,0.7
				l1.2-1.4l1.4,4.1L-4407.6,3000.5z"/>
		</g>
		<g>
			<path class="st9" d="M-4392,3004.5c-0.2-2.8-0.7-5.6-1.3-8.4c-0.2-1-0.5-2.1-0.8-3.1c0-0.1-0.1-0.3-0.2-0.4c0,0,0.1-3.1,0.1-3.5
				c-0.1,0-0.1,0-0.2-0.1c-1.1-1.5-2.7-1.9-4.3-1.7c-1,0.1-2.6,0.7-2.7,0.7c0.5,0.5,1.9,0.9,2.7,0.2c0,0,0,0.7,0.9,1.2
				c0.7,0.4,1,0.5,1.2,0.5c0.8,0.9,1.2,0.7-0.9,0.6c-1.4-0.1-2.4-0.1-3.8,0.8c-1.2,0.7-2.1,2.6-2.1,2.7c1.7-0.7,2.1-1.4,2.1-1.4
				c0,0,1.3,0.4,1.7,0.3c2.1-0.6,2-0.2,1.9-0.1c-0.2,0.3-0.5,0.7-0.6,0.9c-0.5,0.9-0.8,1.7-0.9,2.7c-0.1,0.8-0.1,1.6,0.1,2.4
				c0,0.1,0,0.1,0.1,0.2c0,0,0,0.1,0.1,0.2c1.7-3.1,1.6-3.8,1.5-4c0,0,0.7-0.1,0.9-0.4c0.7-1.2,1.1-1.7,1.4-1.8c0,0,0.1,0.2,0.2,0.3
				c0.4,1.2,0.8,2.5,0.9,3.8c0.2,1.5,0.4,3,0.5,4.6c0.1,2.7,0,5.3-0.3,8c-0.2,1.4,0.4,3.6,1.1,3.6c0.9,0,0.9-3.7,0.9-4.2
				C-4391.8,3007.5-4391.9,3006-4392,3004.5z"/>
			<path class="st9" d="M-4394.8,2989.2c0.1,0,0.1,0,0.2-0.1c1.1-1.5,2.8-1.9,4.3-1.7c1,0.1,2.6,0.8,2.6,0.8c-0.5,0.4-2,0.8-2.7,0.1
				c0,0,0,0.7-0.9,1.2c-0.7,0.4-1,0.5-1.2,0.5c-0.8,0.8-1.2,0.7,0.9,0.6c1.4-0.1,2.4,0,3.8,0.9c1.2,0.7,2.1,2.6,2.1,2.8
				c-1.7-0.7-2.1-1.4-2.1-1.5c0,0-1.3,0.4-1.7,0.3c-2.1-0.7-2-0.3-1.9-0.1c0.2,0.3,0.5,0.7,0.6,0.9c0.5,0.9,0.7,1.7,0.9,2.7
				c0.1,0.8-0.3,2.1-0.3,2.2c-1.7-3.2-1.5-3.3-1.5-3.5c0,0-0.7-0.1-0.9-0.5c-0.6-1.3-1.1-1.7-1.3-1.8c0,0-0.1,0.3-0.2,0.3
				C-4394.6,2993.1-4394.7,2989.6-4394.8,2989.2z"/>
		</g>
	</g>
</g>
<text transform="matrix(1 0 0 1 -4376.25 3006.0149)" class="st10 st11 st12">We are Waiting</text>
</svg>
